<svg width="12" height="12" viewBox="0 0 12 12" fill="none" xmlns="http://www.w3.org/2000/svg">
<path id="Vector" d="M6.375 0.375V2.625C6.375 2.83125 6.20625 3 6 3C5.79375 3 5.625 2.83125 5.625 2.625V0.375C5.625 0.16875 5.79375 0 6 0C6.20625 0 6.375 0.16875 6.375 0.375ZM6.375 9.375V11.625C6.375 11.8313 6.20625 12 6 12C5.79375 12 5.625 11.8313 5.625 11.625V9.375C5.625 9.16875 5.79375 9 6 9C6.20625 9 6.375 9.16875 6.375 9.375ZM0 6C0 5.79375 0.16875 5.625 0.375 5.625H2.625C2.83125 5.625 3 5.79375 3 6C3 6.20625 2.83125 6.375 2.625 6.375H0.375C0.16875 6.375 0 6.20625 0 6ZM9.375 5.625H11.625C11.8313 5.625 12 5.79375 12 6C12 6.20625 11.8313 6.375 11.625 6.375H9.375C9.16875 6.375 9 6.20625 9 6C9 5.79375 9.16875 5.625 9.375 5.625ZM10.2422 1.75781C10.3875 1.90313 10.3875 2.14219 10.2422 2.2875L8.65078 3.87891C8.50547 4.02422 8.26641 4.02422 8.12109 3.87891C7.97578 3.73359 7.97578 3.49453 8.12109 3.34922L9.7125 1.75781C9.85781 1.6125 10.0969 1.6125 10.2422 1.75781ZM3.87891 8.65078L2.2875 10.2422C2.14219 10.3875 1.90313 10.3875 1.75781 10.2422C1.6125 10.0969 1.6125 9.85781 1.75781 9.7125L3.34922 8.12109C3.49453 7.97578 3.73359 7.97578 3.87891 8.12109C4.02422 8.26641 4.02422 8.50547 3.87891 8.65078ZM1.75781 1.75781C1.90313 1.6125 2.14219 1.6125 2.2875 1.75781L3.87891 3.34922C4.02422 3.49453 4.02422 3.73359 3.87891 3.87891C3.73359 4.02422 3.49453 4.02422 3.34922 3.87891L1.75781 2.2875C1.6125 2.14219 1.6125 1.90313 1.75781 1.75781ZM8.65078 8.12109L10.2422 9.7125C10.3875 9.85781 10.3875 10.0969 10.2422 10.2422C10.0969 10.3875 9.85781 10.3875 9.7125 10.2422L8.12109 8.65078C7.97578 8.50547 7.97578 8.26641 8.12109 8.12109C8.26641 7.97578 8.50547 7.97578 8.65078 8.12109Z" fill="#6C747B"/>
</svg>
